<svg xmlns="http://www.w3.org/2000/svg" width="20" height="20" viewBox="0 0 20 20"><defs><style>.a{fill:#fff;}</style></defs><g transform="translate(0 0.001)"><path class="a" d="M140.91,166.66l0,2.8a4.663,4.663,0,0,0,3.066,4.372v.721a1.6,1.6,0,0,0,3.2,0v-.721a4.663,4.663,0,0,0,3.066-4.372v-2.8Zm0,0" transform="translate(-135.612 -160.402)"/><path class="a" d="M117.957,4.379V5.585h8.567v-1.2a2.506,2.506,0,0,0,.9-2.06A2.357,2.357,0,0,0,125.3,0a2.111,2.111,0,0,0-1.584.6,2.1,2.1,0,0,0-2.943,0,2.112,2.112,0,0,0-1.586-.6,2.358,2.358,0,0,0-2.119,2.319,2.508,2.508,0,0,0,.889,2.059Zm0,0" transform="translate(-112.281 0)"/><path class="a" d="M7.6,354.578v-.238H4.216A4.216,4.216,0,0,0,0,358.546v.4a1.842,1.842,0,0,0,1.842,1.839H3.675v-1.862a.613.613,0,0,1,1.226,0v1.862H9.816v-3.451A2.827,2.827,0,0,1,7.6,354.578Zm0,0" transform="translate(0 -340.786)"/><path class="a" d="M275.793,354.34h-3.464v.238a2.827,2.827,0,0,1-2.207,2.753v3.454h4.986v-1.862a.613.613,0,0,1,1.226,0v1.862h1.833a1.842,1.842,0,0,0,1.842-1.839v-.4A4.216,4.216,0,0,0,275.793,354.34Zm0,0" transform="translate(-260.008 -340.786)"/></g></svg>