<svg xmlns="http://www.w3.org/2000/svg" width="30.938" height="30.939" viewBox="0 0 30.938 30.939"><defs><style>.a{fill:#bcbccb;opacity:0.96;}</style></defs><path class="a" d="M21.864,26.859a15.362,15.362,0,0,1-2.527.212A14.09,14.09,0,0,1,11.979,25.1c.2.005.39.04.59.04,8.044,0,14.743-5.129,16.152-11.871a7.324,7.324,0,0,1,2.217,5.1A7.23,7.23,0,0,1,28.982,23.2h.023v7.734ZM1.934,16.285A9.422,9.422,0,0,1,0,10.635C0,4.76,5.627,0,12.569,0S25.138,4.76,25.138,10.635,19.511,21.271,12.569,21.271a14.415,14.415,0,0,1-5.416-1.048L1.934,23.2Z"/></svg>