<svg xmlns="http://www.w3.org/2000/svg" xmlns:xlink="http://www.w3.org/1999/xlink" width="21" height="21" viewBox="0 0 21 21"><defs><style>.a{fill:none;}.b{opacity:0.96;clip-path:url(#a);}.c{fill:#fff;stroke:#a0c800;}</style><clipPath id="a"><rect class="a" width="21" height="21"/></clipPath></defs><g class="b"><path class="c" d="M17.063,21a1.24,1.24,0,0,1-1.314-1.312V7.875a1.24,1.24,0,0,1,1.314-1.312h2.625A1.24,1.24,0,0,1,21,7.875V19.688A1.24,1.24,0,0,1,19.688,21ZM9.188,21a1.239,1.239,0,0,1-1.312-1.312V1.312A1.24,1.24,0,0,1,9.188,0h2.625a1.24,1.24,0,0,1,1.312,1.312V19.688A1.239,1.239,0,0,1,11.812,21ZM1.312,21A1.24,1.24,0,0,1,0,19.688V14.438a1.241,1.241,0,0,1,1.312-1.314H3.937a1.241,1.241,0,0,1,1.314,1.314v5.249A1.24,1.24,0,0,1,3.937,21Z" transform="translate(0 0)"/></g></svg>