<svg xmlns="http://www.w3.org/2000/svg" xmlns:xlink="http://www.w3.org/1999/xlink" width="101.934" height="43.884" viewBox="0 0 101.934 43.884"><defs><style>.a{fill:#fff;}.b{filter:url(#a);}</style><filter id="a" x="0" y="0" width="50.545" height="43.884" filterUnits="userSpaceOnUse"><feOffset dy="4" input="SourceAlpha"/><feGaussianBlur stdDeviation="4" result="b"/><feFlood flood-opacity="0.161"/><feComposite operator="in" in2="b"/><feComposite in="SourceGraphic"/></filter></defs><g transform="translate(12348.466 1736.505)"><g transform="translate(-12487 -1883)"><g transform="translate(182.767 155.938)"><path class="a" d="M686.615,254.963a8.375,8.375,0,0,1,14.216,5.933,8.415,8.415,0,0,1-2.35,5.978,8.229,8.229,0,0,1-5.978,2.533,8.046,8.046,0,0,1-6.047-2.556,8.449,8.449,0,0,1-2.3-6.024A8.126,8.126,0,0,1,686.615,254.963Zm5.887,10.428a4.287,4.287,0,0,0,4.221-4.518,4.244,4.244,0,1,0-8.488,0A4.437,4.437,0,0,0,692.5,265.391Z" transform="translate(-684.151 -252.59)"/><path class="a" d="M992.243,257.422v16.223H988.66V257.422Z" transform="translate(-969.974 -257.126)"/><path class="a" d="M1087.13,330.216a4.747,4.747,0,0,1-3.628,1.438,5.559,5.559,0,0,1-3.833-1.438,6.384,6.384,0,0,1-.182-9.378,5.693,5.693,0,0,1,4.084-1.689,4.1,4.1,0,0,1,3.445,1.552v-1.369h3.605v12.253h-3.491v-1.369Zm-2.829-1.825a2.894,2.894,0,0,0,2.852-2.966,2.978,2.978,0,0,0-2.989-3.08,3.025,3.025,0,1,0,.137,6.047Z" transform="translate(-1053.385 -315.065)"/><path class="a" d="M1329.614,330.886V318.633h3.263v1.643a3.624,3.624,0,0,1,3.332-1.871,3.73,3.73,0,0,1,3.4,1.962c1.278-1.346,2.259-1.962,3.788-1.962,2.761,0,4.313,1.552,4.313,4.4v8.078h-3.514v-6.64c0-1.711-.365-2.487-1.711-2.487-1.369,0-2.1.844-2.1,2.487v6.64h-3.537v-6.64c0-1.711-.365-2.487-1.711-2.487-1.369,0-2.1.844-2.1,2.487v6.64Z" transform="translate(-1290.006 -314.366)"/></g><path class="a" d="M388.8,375A13.807,13.807,0,0,0,375,388.807,13.807,13.807,0,0,0,388.8,375Z" transform="translate(-211.191 -211.807)"/><path class="a" d="M150,375a13.807,13.807,0,0,0,13.807,13.807A13.807,13.807,0,0,0,150,375Z" transform="translate(0 -211.807)"/><g class="b" transform="matrix(1, 0, 0, 1, 138.53, 146.49)"><path class="a" d="M171.979,253.128c0-7.446,5.9-14.652,13.272-14.987a13.764,13.764,0,0,0-2.553-4.9c-6.138,2.181-10.72,10.462-10.72,17.025,0-6.564-4.581-14.845-10.72-17.025a13.765,13.765,0,0,0-2.553,4.9C166.084,238.476,171.979,245.682,171.979,253.128Z" transform="translate(-146.71 -225.24)"/></g><path class="a" d="M264.052,169.235c0-5.252,2.935-12.966,7.253-17.176a13.8,13.8,0,0,0-14.506,0C261.117,156.268,264.052,163.982,264.052,169.235Z" transform="translate(-100.245 0)"/></g></g></svg>