<svg xmlns="http://www.w3.org/2000/svg" width="40.027" height="43.52" viewBox="0 0 40.027 43.52"><defs><style>.a{opacity:0.96;}.b{fill:#bcbccb;}.c{fill:#ffc06a;}.d,.e{stroke:none;}.e{fill:#fff;}</style></defs><g class="a" transform="translate(0 6.851)"><path class="b" d="M10.477,24.446h6.984a3.492,3.492,0,0,1-6.984,0ZM1.746,22.7a1.746,1.746,0,0,1,0-3.492H2.62a7.6,7.6,0,0,0,2.618-5.239V8.731A8.647,8.647,0,0,1,13.969,0,8.646,8.646,0,0,1,22.7,8.731v5.238a7.6,7.6,0,0,0,2.62,5.239h.874a1.746,1.746,0,0,1,0,3.492Z" transform="translate(0 8.731)"/><g class="c" transform="translate(19.207 -4.851)"><path class="d" d="M 9.41004467010498 19.8200855255127 C 3.669924736022949 19.8200855255127 -0.9999953508377075 15.15016460418701 -0.9999953508377075 9.41004467010498 C -0.9999953508377075 3.669924736022949 3.669924736022949 -0.9999953508377075 9.41004467010498 -0.9999953508377075 C 15.15016460418701 -0.9999953508377075 19.8200855255127 3.669924736022949 19.8200855255127 9.41004467010498 C 19.8200855255127 15.15016460418701 15.15016460418701 19.8200855255127 9.41004467010498 19.8200855255127 Z"/><path class="e" d="M 9.41004467010498 3.814697265625e-06 C 4.213025093078613 3.814697265625e-06 3.814697265625e-06 4.213025093078613 3.814697265625e-06 9.41004467010498 C 3.814697265625e-06 14.60706520080566 4.213025093078613 18.8200855255127 9.41004467010498 18.8200855255127 C 14.60706520080566 18.8200855255127 18.8200855255127 14.60706520080566 18.8200855255127 9.41004467010498 C 18.8200855255127 4.213025093078613 14.60706520080566 3.814697265625e-06 9.41004467010498 3.814697265625e-06 M 9.41004467010498 -1.999996185302734 C 12.4577751159668 -1.999996185302734 15.32308483123779 -0.8131446838378906 17.47816467285156 1.341924667358398 C 19.63323402404785 3.497004508972168 20.8200855255127 6.362314224243164 20.8200855255127 9.41004467010498 C 20.8200855255127 12.4577751159668 19.63323402404785 15.32308483123779 17.47816467285156 17.47816467285156 C 15.32308483123779 19.63323402404785 12.4577751159668 20.8200855255127 9.41004467010498 20.8200855255127 C 6.362314224243164 20.8200855255127 3.497004508972168 19.63323402404785 1.341924667358398 17.47816467285156 C -0.8131446838378906 15.32308483123779 -1.999996185302734 12.4577751159668 -1.999996185302734 9.41004467010498 C -1.999996185302734 6.362314224243164 -0.8131446838378906 3.497004508972168 1.341924667358398 1.341924667358398 C 3.497004508972168 -0.8131446838378906 6.362314224243164 -1.999996185302734 9.41004467010498 -1.999996185302734 Z"/></g></g></svg>