<svg xmlns="http://www.w3.org/2000/svg" xmlns:xlink="http://www.w3.org/1999/xlink" width="163.833" height="50" viewBox="0 0 163.833 50"><defs><style>.a{fill:none;}.b{opacity:0.96;}.b,.c{clip-path:url(#a);}.d{fill:#fff;}</style><clipPath id="a"><rect class="a" width="163.833" height="50"/></clipPath></defs><g class="b"><g class="c"><path class="d" d="M538.656,106.9A15.162,15.162,0,0,1,564.4,117.633a15.232,15.232,0,0,1-4.255,10.822,14.9,14.9,0,0,1-10.822,4.589,14.565,14.565,0,0,1-10.945-4.622,15,15,0,0,1-4.178-10.911,14.71,14.71,0,0,1,4.467-10.622m10.656,18.878c4.211,0,7.644-3.389,7.644-8.178a7.689,7.689,0,1,0-15.378,0,8.036,8.036,0,0,0,7.722,8.178" transform="translate(-474.844 -91.2)"/><rect class="d" width="6.489" height="29.376" transform="translate(93.189 11.933)"/><path class="d" d="M944.9,189.144a8.593,8.593,0,0,1-6.567,2.6,10.158,10.158,0,0,1-6.944-2.6,11.56,11.56,0,0,1-.333-16.989,10.326,10.326,0,0,1,7.4-3.056,7.249,7.249,0,0,1,6.233,2.811v-2.478h6.533v22.189H944.9Zm-5.122-3.311a5.239,5.239,0,0,0,5.167-5.367,5.456,5.456,0,1,0-5.167,5.378" transform="translate(-824.444 -150.311)"/><path class="d" d="M1179.6,191V168.811h5.911v2.978a6.555,6.555,0,0,1,6.033-3.389,6.742,6.742,0,0,1,6.156,3.556c2.311-2.433,4.089-3.556,6.856-3.556,5,0,7.811,2.811,7.811,7.978V191H1206V178.978c0-3.1-.655-4.5-3.1-4.5s-3.8,1.533-3.8,4.5V191h-6.4V178.978c0-3.1-.656-4.5-3.1-4.5s-3.8,1.533-3.8,4.5V191Z" transform="translate(-1048.533 -149.689)"/><path class="d" d="M250,225a25,25,0,0,0-25,25,25,25,0,0,0,25-25" transform="translate(-200 -200)"/><path class="d" d="M0,225a25,25,0,0,0,25,25A25,25,0,0,0,0,225" transform="translate(0 -200)"/><path class="d" d="M32.733,119.211c0-13.478,10.678-26.533,24.033-27.133a24.922,24.922,0,0,0-4.622-8.867c-11.111,3.944-19.411,18.933-19.411,30.822,0-11.889-8.3-26.878-19.411-30.833A24.922,24.922,0,0,0,8.7,92.067c13.356.611,24.033,13.656,24.033,27.144" transform="translate(-7.733 -73.956)"/><path class="d" d="M119.933,34.879c0-9.511,5.311-23.478,13.133-31.1a25,25,0,0,0-26.267,0c7.822,7.622,13.133,21.589,13.133,31.1" transform="translate(-94.933 -0.046)"/></g></g></svg>