<svg xmlns="http://www.w3.org/2000/svg" width="16.113" height="15" viewBox="0 0 16.113 15"><defs><style>.a{fill:#cecfd0;}</style></defs><path class="a" d="M14.782,1.3A5.387,5.387,0,0,0,11.325,0,5.241,5.241,0,0,0,7.869,1.3a.982.982,0,0,0-.294.75,1.367,1.367,0,0,0,.294.75,1.159,1.159,0,0,0,.809.273h0A1.619,1.619,0,0,0,9.487,2.8a2.911,2.911,0,0,1,3.824,0,2.751,2.751,0,0,1,.662,1.7,2.391,2.391,0,0,1-.809,1.773L6.766,12.2a2.911,2.911,0,0,1-3.824,0,2.454,2.454,0,0,1-.735-1.7,2.391,2.391,0,0,1,.809-1.773L5.736,6.2a.846.846,0,0,1,1.1,0,.785.785,0,0,1,0,1.091L4.854,9.136a.982.982,0,0,0-.294.75,1.367,1.367,0,0,0,.294.75,1.294,1.294,0,0,0,1.544,0L8.384,8.8a2.656,2.656,0,0,0,0-3.955,3.067,3.067,0,0,0-2.133-.818,2.724,2.724,0,0,0-2.059.75L1.471,7.3A4.181,4.181,0,0,0,0,10.5a4.487,4.487,0,0,0,1.4,3.2A5.387,5.387,0,0,0,4.854,15,5.241,5.241,0,0,0,8.31,13.7l6.4-5.932a4.212,4.212,0,0,0,1.4-3.2A4.286,4.286,0,0,0,14.782,1.3Z" transform="translate(0 0)"/></svg>